<?xml version="1.0" standalone="no"?>
<!DOCTYPE svg PUBLIC "-//W3C//DTD SVG 20010904//EN"
 "http://www.w3.org/TR/2001/REC-SVG-20010904/DTD/svg10.dtd">
<svg version="1.0" xmlns="http://www.w3.org/2000/svg"
 width="468.000000pt" height="225.000000pt" viewBox="0 0 468.000000 225.000000"
 preserveAspectRatio="xMidYMid meet">
<metadata>
Created by potrace 1.16, written by Peter Selinger 2001-2019
</metadata>
<g transform="translate(0.000000,225.000000) scale(0.100000,-0.100000)"
fill="#000000" stroke="none">
<path d="M4555 2151 c-24 -23 -313 -163 -441 -214 -348 -139 -551 -160 -824
-87 -141 38 -309 52 -375 30 -94 -30 -278 -126 -370 -193 -44 -32 -35 -32 72
7 159 57 369 85 441 58 27 -10 115 -31 220 -51 71 -14 369 -14 429 0 146 35
320 106 468 191 84 49 383 247 391 259 7 12 1 11 -11 0z"/>
<path d="M2006 1793 c-11 -38 -22 -72 -26 -78 -4 -5 -15 -37 -24 -70 -10 -33
-33 -105 -51 -160 -18 -55 -44 -138 -59 -185 -15 -47 -31 -94 -36 -105 -5 -11
-18 -49 -29 -85 -10 -36 -22 -73 -26 -82 -4 -11 -3 -18 4 -18 17 0 50 41 60
74 15 49 81 240 89 256 4 8 28 77 52 152 25 76 50 137 57 138 6 0 18 -19 26
-42 64 -182 99 -268 107 -268 3 1 20 14 39 30 l34 29 -37 98 c-21 54 -43 114
-51 133 -7 19 -31 82 -53 139 -21 58 -43 106 -48 108 -5 2 -18 -27 -28 -64z"/>
<path d="M0 1765 c0 -24 3 -25 60 -25 65 0 113 -18 125 -47 3 -10 6 -220 6
-468 0 -398 2 -457 18 -515 42 -158 124 -253 251 -295 30 -10 65 -21 78 -26
32 -13 153 -11 209 2 81 19 170 59 210 94 21 18 36 35 33 38 -4 4 -78 -26
-130 -53 -24 -12 -159 -33 -210 -33 -208 1 -333 124 -371 365 -15 98 -7 839 9
880 15 35 45 51 112 58 47 4 55 8 55 25 0 19 -8 20 -227 23 l-228 2 0 -25z"/>
<path d="M943 1783 c-15 -3 -23 -12 -23 -24 0 -15 7 -19 38 -19 48 0 123 -38
139 -70 10 -19 13 -175 13 -657 l0 -633 95 0 c57 0 95 4 95 10 0 6 -4 10 -10
10 -11 0 -70 62 -87 93 -9 17 -12 167 -13 604 l0 582 23 26 c18 22 34 27 85
32 57 5 62 8 62 29 l0 24 -197 -1 c-109 -1 -208 -4 -220 -6z"/>
<path d="M4344 1761 c-254 -131 -601 -247 -819 -272 -163 -18 -263 -12 -475
32 -179 37 -284 35 -419 -8 -87 -27 -388 -172 -360 -172 9 -1 18 2 22 5 3 3
42 19 87 34 157 55 300 62 433 19 62 -20 150 -42 242 -60 28 -6 117 -13 198
-16 129 -4 158 -2 226 16 80 22 248 80 304 105 18 8 55 24 82 36 153 66 399
199 504 272 62 43 50 48 -25 9z"/>
<path d="M4145 1320 c-16 -5 -95 -31 -175 -59 -80 -27 -185 -62 -235 -76 -523
-156 -596 -158 -1069 -36 -218 56 -296 55 -491 -5 -44 -14 -89 -29 -100 -34
-11 -5 -54 -23 -95 -41 -97 -41 -312 -147 -324 -159 -12 -12 6 -14 20 -2 5 5
41 21 79 36 39 16 84 34 100 41 143 60 358 105 507 105 83 0 111 -5 200 -34
209 -68 265 -84 338 -101 41 -9 95 -22 120 -28 61 -16 233 -15 295 2 79 21
148 42 170 51 11 5 67 28 125 51 141 56 530 256 565 290 5 5 7 9 5 8 -3 -1
-18 -5 -35 -9z"/>
<path d="M2265 988 c13 -35 47 -126 75 -203 28 -77 55 -149 60 -160 4 -11 15
-40 25 -65 9 -25 21 -55 26 -68 15 -39 10 -62 -16 -74 -14 -6 -25 -17 -25 -25
0 -10 30 -13 140 -13 118 0 140 2 140 15 0 11 -11 15 -39 15 -48 0 -61 15
-118 145 -39 87 -157 380 -184 458 -13 36 -15 37 -60 37 l-47 0 23 -62z"/>
<path d="M1715 869 c-13 -7 -34 -46 -60 -112 -87 -225 -157 -347 -201 -347
-16 0 -24 -5 -22 -12 7 -20 198 -24 198 -5 0 8 -9 17 -20 20 -18 5 -20 11 -14
49 6 42 28 124 44 163 4 11 20 52 35 90 16 39 39 91 52 118 24 48 23 53 -12
36z"/>
</g>
</svg>
